<mxfile host="Electron" modified="2023-12-21T01:57:46.598Z" agent="Mozilla/5.0 (Windows NT 10.0; Win64; x64) AppleWebKit/537.36 (KHTML, like Gecko) draw.io/22.1.11 Chrome/114.0.5735.289 Electron/25.9.8 Safari/537.36" etag="cYixukjVzVTUA0EyUVWd" version="22.1.11" type="device">
  <diagram name="Страница — 1" id="-h4GSHmc3fzPh6wjazGI">
    <mxGraphModel dx="712" dy="835" grid="1" gridSize="10" guides="1" tooltips="1" connect="1" arrows="1" fold="1" page="1" pageScale="1" pageWidth="827" pageHeight="1169" math="0" shadow="0">
      <root>
        <mxCell id="0" />
        <mxCell id="1" parent="0" />
        <mxCell id="bnDdyVdjjceVZC34I3cB-19" style="edgeStyle=orthogonalEdgeStyle;rounded=0;orthogonalLoop=1;jettySize=auto;html=1;exitX=0.5;exitY=1;exitDx=0;exitDy=0;entryX=0.5;entryY=0;entryDx=0;entryDy=0;" edge="1" parent="1" source="bnDdyVdjjceVZC34I3cB-15" target="bnDdyVdjjceVZC34I3cB-16">
          <mxGeometry relative="1" as="geometry" />
        </mxCell>
        <mxCell id="bnDdyVdjjceVZC34I3cB-15" value="начало&lt;br&gt;selcomparetor1" style="rounded=1;whiteSpace=wrap;html=1;arcSize=50;" vertex="1" parent="1">
          <mxGeometry x="30" y="20" width="100" height="50" as="geometry" />
        </mxCell>
        <mxCell id="bnDdyVdjjceVZC34I3cB-21" style="edgeStyle=orthogonalEdgeStyle;rounded=0;orthogonalLoop=1;jettySize=auto;html=1;exitX=1;exitY=0.5;exitDx=0;exitDy=0;entryX=0.5;entryY=0;entryDx=0;entryDy=0;" edge="1" parent="1" source="bnDdyVdjjceVZC34I3cB-16" target="bnDdyVdjjceVZC34I3cB-20">
          <mxGeometry relative="1" as="geometry" />
        </mxCell>
        <mxCell id="bnDdyVdjjceVZC34I3cB-23" style="edgeStyle=orthogonalEdgeStyle;rounded=0;orthogonalLoop=1;jettySize=auto;html=1;exitX=0.5;exitY=1;exitDx=0;exitDy=0;entryX=0.5;entryY=0;entryDx=0;entryDy=0;" edge="1" parent="1" source="bnDdyVdjjceVZC34I3cB-16" target="bnDdyVdjjceVZC34I3cB-22">
          <mxGeometry relative="1" as="geometry" />
        </mxCell>
        <mxCell id="bnDdyVdjjceVZC34I3cB-16" value="arr[i] &amp;gt; max" style="rhombus;whiteSpace=wrap;html=1;" vertex="1" parent="1">
          <mxGeometry x="30" y="90" width="100" height="60" as="geometry" />
        </mxCell>
        <mxCell id="bnDdyVdjjceVZC34I3cB-17" value="да" style="text;html=1;strokeColor=none;fillColor=none;align=center;verticalAlign=middle;whiteSpace=wrap;rounded=0;" vertex="1" parent="1">
          <mxGeometry x="103" y="90" width="60" height="30" as="geometry" />
        </mxCell>
        <mxCell id="bnDdyVdjjceVZC34I3cB-18" value="нет" style="text;html=1;strokeColor=none;fillColor=none;align=center;verticalAlign=middle;whiteSpace=wrap;rounded=0;" vertex="1" parent="1">
          <mxGeometry x="70" y="140" width="60" height="30" as="geometry" />
        </mxCell>
        <mxCell id="bnDdyVdjjceVZC34I3cB-24" style="edgeStyle=orthogonalEdgeStyle;rounded=0;orthogonalLoop=1;jettySize=auto;html=1;exitX=0.5;exitY=1;exitDx=0;exitDy=0;" edge="1" parent="1" source="bnDdyVdjjceVZC34I3cB-20">
          <mxGeometry relative="1" as="geometry">
            <mxPoint x="80" y="220" as="targetPoint" />
            <Array as="points">
              <mxPoint x="180" y="220" />
            </Array>
          </mxGeometry>
        </mxCell>
        <mxCell id="bnDdyVdjjceVZC34I3cB-20" value="&lt;div&gt;max= arr[i]&lt;/div&gt;&lt;div&gt;&lt;span style=&quot;background-color: initial;&quot;&gt;maxi= i&lt;/span&gt;&lt;/div&gt;" style="rounded=0;whiteSpace=wrap;html=1;" vertex="1" parent="1">
          <mxGeometry x="130" y="150" width="100" height="50" as="geometry" />
        </mxCell>
        <mxCell id="bnDdyVdjjceVZC34I3cB-22" value="конец" style="rounded=1;whiteSpace=wrap;html=1;arcSize=50;" vertex="1" parent="1">
          <mxGeometry x="30" y="240" width="100" height="50" as="geometry" />
        </mxCell>
        <mxCell id="bnDdyVdjjceVZC34I3cB-25" style="edgeStyle=orthogonalEdgeStyle;rounded=0;orthogonalLoop=1;jettySize=auto;html=1;exitX=0.5;exitY=1;exitDx=0;exitDy=0;entryX=0.5;entryY=0;entryDx=0;entryDy=0;" edge="1" parent="1" source="bnDdyVdjjceVZC34I3cB-26" target="bnDdyVdjjceVZC34I3cB-29">
          <mxGeometry relative="1" as="geometry" />
        </mxCell>
        <mxCell id="bnDdyVdjjceVZC34I3cB-26" value="начало&lt;br&gt;selcomparetor2" style="rounded=1;whiteSpace=wrap;html=1;arcSize=50;" vertex="1" parent="1">
          <mxGeometry x="330" y="20" width="100" height="50" as="geometry" />
        </mxCell>
        <mxCell id="bnDdyVdjjceVZC34I3cB-27" style="edgeStyle=orthogonalEdgeStyle;rounded=0;orthogonalLoop=1;jettySize=auto;html=1;exitX=1;exitY=0.5;exitDx=0;exitDy=0;entryX=0.5;entryY=0;entryDx=0;entryDy=0;" edge="1" parent="1" source="bnDdyVdjjceVZC34I3cB-29" target="bnDdyVdjjceVZC34I3cB-33">
          <mxGeometry relative="1" as="geometry" />
        </mxCell>
        <mxCell id="bnDdyVdjjceVZC34I3cB-28" style="edgeStyle=orthogonalEdgeStyle;rounded=0;orthogonalLoop=1;jettySize=auto;html=1;exitX=0.5;exitY=1;exitDx=0;exitDy=0;entryX=0.5;entryY=0;entryDx=0;entryDy=0;" edge="1" parent="1" source="bnDdyVdjjceVZC34I3cB-29" target="bnDdyVdjjceVZC34I3cB-34">
          <mxGeometry relative="1" as="geometry" />
        </mxCell>
        <mxCell id="bnDdyVdjjceVZC34I3cB-29" value="arr[i] &amp;lt; max" style="rhombus;whiteSpace=wrap;html=1;" vertex="1" parent="1">
          <mxGeometry x="330" y="90" width="100" height="60" as="geometry" />
        </mxCell>
        <mxCell id="bnDdyVdjjceVZC34I3cB-30" value="да" style="text;html=1;strokeColor=none;fillColor=none;align=center;verticalAlign=middle;whiteSpace=wrap;rounded=0;" vertex="1" parent="1">
          <mxGeometry x="403" y="90" width="60" height="30" as="geometry" />
        </mxCell>
        <mxCell id="bnDdyVdjjceVZC34I3cB-31" value="нет" style="text;html=1;strokeColor=none;fillColor=none;align=center;verticalAlign=middle;whiteSpace=wrap;rounded=0;" vertex="1" parent="1">
          <mxGeometry x="370" y="140" width="60" height="30" as="geometry" />
        </mxCell>
        <mxCell id="bnDdyVdjjceVZC34I3cB-32" style="edgeStyle=orthogonalEdgeStyle;rounded=0;orthogonalLoop=1;jettySize=auto;html=1;exitX=0.5;exitY=1;exitDx=0;exitDy=0;" edge="1" parent="1" source="bnDdyVdjjceVZC34I3cB-33">
          <mxGeometry relative="1" as="geometry">
            <mxPoint x="380" y="220" as="targetPoint" />
            <Array as="points">
              <mxPoint x="480" y="220" />
            </Array>
          </mxGeometry>
        </mxCell>
        <mxCell id="bnDdyVdjjceVZC34I3cB-33" value="&lt;div&gt;max= arr[i]&lt;/div&gt;&lt;div&gt;&lt;span style=&quot;background-color: initial;&quot;&gt;maxi= i&lt;/span&gt;&lt;/div&gt;" style="rounded=0;whiteSpace=wrap;html=1;" vertex="1" parent="1">
          <mxGeometry x="430" y="150" width="100" height="50" as="geometry" />
        </mxCell>
        <mxCell id="bnDdyVdjjceVZC34I3cB-34" value="конец" style="rounded=1;whiteSpace=wrap;html=1;arcSize=50;" vertex="1" parent="1">
          <mxGeometry x="330" y="240" width="100" height="50" as="geometry" />
        </mxCell>
        <mxCell id="bnDdyVdjjceVZC34I3cB-41" style="edgeStyle=orthogonalEdgeStyle;rounded=0;orthogonalLoop=1;jettySize=auto;html=1;exitX=0.5;exitY=1;exitDx=0;exitDy=0;entryX=0.5;entryY=0;entryDx=0;entryDy=0;" edge="1" parent="1" source="bnDdyVdjjceVZC34I3cB-35" target="bnDdyVdjjceVZC34I3cB-36">
          <mxGeometry relative="1" as="geometry" />
        </mxCell>
        <mxCell id="bnDdyVdjjceVZC34I3cB-35" value="начало&lt;br&gt;Quickcomparetor1" style="rounded=1;whiteSpace=wrap;html=1;arcSize=50;" vertex="1" parent="1">
          <mxGeometry x="30" y="320" width="100" height="50" as="geometry" />
        </mxCell>
        <mxCell id="bnDdyVdjjceVZC34I3cB-40" style="edgeStyle=orthogonalEdgeStyle;rounded=0;orthogonalLoop=1;jettySize=auto;html=1;exitX=0.5;exitY=1;exitDx=0;exitDy=0;entryX=0.5;entryY=0;entryDx=0;entryDy=0;" edge="1" parent="1" source="bnDdyVdjjceVZC34I3cB-36" target="bnDdyVdjjceVZC34I3cB-39">
          <mxGeometry relative="1" as="geometry" />
        </mxCell>
        <mxCell id="bnDdyVdjjceVZC34I3cB-46" style="edgeStyle=orthogonalEdgeStyle;rounded=0;orthogonalLoop=1;jettySize=auto;html=1;exitX=1;exitY=0.5;exitDx=0;exitDy=0;entryX=0.5;entryY=0;entryDx=0;entryDy=0;" edge="1" parent="1" source="bnDdyVdjjceVZC34I3cB-36" target="bnDdyVdjjceVZC34I3cB-43">
          <mxGeometry relative="1" as="geometry" />
        </mxCell>
        <mxCell id="bnDdyVdjjceVZC34I3cB-36" value="arr[i] &amp;lt; x" style="rhombus;whiteSpace=wrap;html=1;" vertex="1" parent="1">
          <mxGeometry x="30" y="400" width="100" height="60" as="geometry" />
        </mxCell>
        <mxCell id="bnDdyVdjjceVZC34I3cB-42" style="edgeStyle=orthogonalEdgeStyle;rounded=0;orthogonalLoop=1;jettySize=auto;html=1;exitX=0.5;exitY=1;exitDx=0;exitDy=0;" edge="1" parent="1" source="bnDdyVdjjceVZC34I3cB-39">
          <mxGeometry relative="1" as="geometry">
            <mxPoint x="80" y="380" as="targetPoint" />
            <Array as="points">
              <mxPoint x="80" y="540" />
              <mxPoint x="20" y="540" />
              <mxPoint x="20" y="380" />
            </Array>
          </mxGeometry>
        </mxCell>
        <mxCell id="bnDdyVdjjceVZC34I3cB-39" value="i=i+1" style="rounded=0;whiteSpace=wrap;html=1;" vertex="1" parent="1">
          <mxGeometry x="30" y="480" width="100" height="50" as="geometry" />
        </mxCell>
        <mxCell id="bnDdyVdjjceVZC34I3cB-48" style="edgeStyle=orthogonalEdgeStyle;rounded=0;orthogonalLoop=1;jettySize=auto;html=1;exitX=0.5;exitY=1;exitDx=0;exitDy=0;entryX=0.5;entryY=0;entryDx=0;entryDy=0;" edge="1" parent="1" source="bnDdyVdjjceVZC34I3cB-43" target="bnDdyVdjjceVZC34I3cB-47">
          <mxGeometry relative="1" as="geometry" />
        </mxCell>
        <mxCell id="bnDdyVdjjceVZC34I3cB-53" style="edgeStyle=orthogonalEdgeStyle;rounded=0;orthogonalLoop=1;jettySize=auto;html=1;exitX=1;exitY=0.5;exitDx=0;exitDy=0;entryX=0.5;entryY=0;entryDx=0;entryDy=0;" edge="1" parent="1" source="bnDdyVdjjceVZC34I3cB-43" target="bnDdyVdjjceVZC34I3cB-50">
          <mxGeometry relative="1" as="geometry">
            <Array as="points">
              <mxPoint x="280" y="500" />
              <mxPoint x="280" y="620" />
              <mxPoint x="80" y="620" />
            </Array>
          </mxGeometry>
        </mxCell>
        <mxCell id="bnDdyVdjjceVZC34I3cB-43" value="x &amp;lt; arr[j-1]" style="rhombus;whiteSpace=wrap;html=1;" vertex="1" parent="1">
          <mxGeometry x="170" y="470" width="100" height="60" as="geometry" />
        </mxCell>
        <mxCell id="bnDdyVdjjceVZC34I3cB-44" value="нет" style="text;html=1;strokeColor=none;fillColor=none;align=center;verticalAlign=middle;whiteSpace=wrap;rounded=0;" vertex="1" parent="1">
          <mxGeometry x="247" y="470" width="60" height="30" as="geometry" />
        </mxCell>
        <mxCell id="bnDdyVdjjceVZC34I3cB-45" value="да" style="text;html=1;strokeColor=none;fillColor=none;align=center;verticalAlign=middle;whiteSpace=wrap;rounded=0;" vertex="1" parent="1">
          <mxGeometry x="210" y="520" width="60" height="30" as="geometry" />
        </mxCell>
        <mxCell id="bnDdyVdjjceVZC34I3cB-49" style="edgeStyle=orthogonalEdgeStyle;rounded=0;orthogonalLoop=1;jettySize=auto;html=1;exitX=0.5;exitY=1;exitDx=0;exitDy=0;" edge="1" parent="1" source="bnDdyVdjjceVZC34I3cB-47">
          <mxGeometry relative="1" as="geometry">
            <mxPoint x="220" y="450" as="targetPoint" />
            <Array as="points">
              <mxPoint x="217" y="610" />
              <mxPoint x="160" y="610" />
              <mxPoint x="160" y="450" />
              <mxPoint x="217" y="450" />
            </Array>
          </mxGeometry>
        </mxCell>
        <mxCell id="bnDdyVdjjceVZC34I3cB-47" value="j=j+1" style="rounded=0;whiteSpace=wrap;html=1;" vertex="1" parent="1">
          <mxGeometry x="170" y="550" width="100" height="50" as="geometry" />
        </mxCell>
        <mxCell id="bnDdyVdjjceVZC34I3cB-50" value="конец" style="rounded=1;whiteSpace=wrap;html=1;arcSize=50;" vertex="1" parent="1">
          <mxGeometry x="30" y="660" width="100" height="50" as="geometry" />
        </mxCell>
        <mxCell id="bnDdyVdjjceVZC34I3cB-51" value="нет" style="text;html=1;strokeColor=none;fillColor=none;align=center;verticalAlign=middle;whiteSpace=wrap;rounded=0;" vertex="1" parent="1">
          <mxGeometry x="107" y="400" width="60" height="30" as="geometry" />
        </mxCell>
        <mxCell id="bnDdyVdjjceVZC34I3cB-52" value="да" style="text;html=1;strokeColor=none;fillColor=none;align=center;verticalAlign=middle;whiteSpace=wrap;rounded=0;" vertex="1" parent="1">
          <mxGeometry x="70" y="450" width="60" height="30" as="geometry" />
        </mxCell>
        <mxCell id="bnDdyVdjjceVZC34I3cB-54" style="edgeStyle=orthogonalEdgeStyle;rounded=0;orthogonalLoop=1;jettySize=auto;html=1;exitX=0.5;exitY=1;exitDx=0;exitDy=0;entryX=0.5;entryY=0;entryDx=0;entryDy=0;" edge="1" parent="1" source="bnDdyVdjjceVZC34I3cB-55" target="bnDdyVdjjceVZC34I3cB-58">
          <mxGeometry relative="1" as="geometry" />
        </mxCell>
        <mxCell id="bnDdyVdjjceVZC34I3cB-55" value="начало&lt;br&gt;Quickcomparetor2" style="rounded=1;whiteSpace=wrap;html=1;arcSize=50;" vertex="1" parent="1">
          <mxGeometry x="330" y="320" width="100" height="50" as="geometry" />
        </mxCell>
        <mxCell id="bnDdyVdjjceVZC34I3cB-56" style="edgeStyle=orthogonalEdgeStyle;rounded=0;orthogonalLoop=1;jettySize=auto;html=1;exitX=0.5;exitY=1;exitDx=0;exitDy=0;entryX=0.5;entryY=0;entryDx=0;entryDy=0;" edge="1" parent="1" source="bnDdyVdjjceVZC34I3cB-58" target="bnDdyVdjjceVZC34I3cB-60">
          <mxGeometry relative="1" as="geometry" />
        </mxCell>
        <mxCell id="bnDdyVdjjceVZC34I3cB-57" style="edgeStyle=orthogonalEdgeStyle;rounded=0;orthogonalLoop=1;jettySize=auto;html=1;exitX=1;exitY=0.5;exitDx=0;exitDy=0;entryX=0.5;entryY=0;entryDx=0;entryDy=0;" edge="1" parent="1" source="bnDdyVdjjceVZC34I3cB-58" target="bnDdyVdjjceVZC34I3cB-63">
          <mxGeometry relative="1" as="geometry" />
        </mxCell>
        <mxCell id="bnDdyVdjjceVZC34I3cB-58" value="arr[i] &amp;gt; x" style="rhombus;whiteSpace=wrap;html=1;" vertex="1" parent="1">
          <mxGeometry x="330" y="400" width="100" height="60" as="geometry" />
        </mxCell>
        <mxCell id="bnDdyVdjjceVZC34I3cB-59" style="edgeStyle=orthogonalEdgeStyle;rounded=0;orthogonalLoop=1;jettySize=auto;html=1;exitX=0.5;exitY=1;exitDx=0;exitDy=0;" edge="1" parent="1" source="bnDdyVdjjceVZC34I3cB-60">
          <mxGeometry relative="1" as="geometry">
            <mxPoint x="380" y="380" as="targetPoint" />
            <Array as="points">
              <mxPoint x="380" y="540" />
              <mxPoint x="320" y="540" />
              <mxPoint x="320" y="380" />
            </Array>
          </mxGeometry>
        </mxCell>
        <mxCell id="bnDdyVdjjceVZC34I3cB-60" value="i=i+1" style="rounded=0;whiteSpace=wrap;html=1;" vertex="1" parent="1">
          <mxGeometry x="330" y="480" width="100" height="50" as="geometry" />
        </mxCell>
        <mxCell id="bnDdyVdjjceVZC34I3cB-61" style="edgeStyle=orthogonalEdgeStyle;rounded=0;orthogonalLoop=1;jettySize=auto;html=1;exitX=0.5;exitY=1;exitDx=0;exitDy=0;entryX=0.5;entryY=0;entryDx=0;entryDy=0;" edge="1" parent="1" source="bnDdyVdjjceVZC34I3cB-63" target="bnDdyVdjjceVZC34I3cB-67">
          <mxGeometry relative="1" as="geometry" />
        </mxCell>
        <mxCell id="bnDdyVdjjceVZC34I3cB-62" style="edgeStyle=orthogonalEdgeStyle;rounded=0;orthogonalLoop=1;jettySize=auto;html=1;exitX=1;exitY=0.5;exitDx=0;exitDy=0;entryX=0.5;entryY=0;entryDx=0;entryDy=0;" edge="1" parent="1" source="bnDdyVdjjceVZC34I3cB-63" target="bnDdyVdjjceVZC34I3cB-68">
          <mxGeometry relative="1" as="geometry">
            <Array as="points">
              <mxPoint x="580" y="500" />
              <mxPoint x="580" y="620" />
              <mxPoint x="380" y="620" />
            </Array>
          </mxGeometry>
        </mxCell>
        <mxCell id="bnDdyVdjjceVZC34I3cB-63" value="x &amp;gt; arr[j-1]" style="rhombus;whiteSpace=wrap;html=1;" vertex="1" parent="1">
          <mxGeometry x="470" y="470" width="100" height="60" as="geometry" />
        </mxCell>
        <mxCell id="bnDdyVdjjceVZC34I3cB-64" value="нет" style="text;html=1;strokeColor=none;fillColor=none;align=center;verticalAlign=middle;whiteSpace=wrap;rounded=0;" vertex="1" parent="1">
          <mxGeometry x="547" y="470" width="60" height="30" as="geometry" />
        </mxCell>
        <mxCell id="bnDdyVdjjceVZC34I3cB-65" value="да" style="text;html=1;strokeColor=none;fillColor=none;align=center;verticalAlign=middle;whiteSpace=wrap;rounded=0;" vertex="1" parent="1">
          <mxGeometry x="510" y="520" width="60" height="30" as="geometry" />
        </mxCell>
        <mxCell id="bnDdyVdjjceVZC34I3cB-66" style="edgeStyle=orthogonalEdgeStyle;rounded=0;orthogonalLoop=1;jettySize=auto;html=1;exitX=0.5;exitY=1;exitDx=0;exitDy=0;" edge="1" parent="1" source="bnDdyVdjjceVZC34I3cB-67">
          <mxGeometry relative="1" as="geometry">
            <mxPoint x="520" y="450" as="targetPoint" />
            <Array as="points">
              <mxPoint x="517" y="610" />
              <mxPoint x="460" y="610" />
              <mxPoint x="460" y="450" />
              <mxPoint x="517" y="450" />
            </Array>
          </mxGeometry>
        </mxCell>
        <mxCell id="bnDdyVdjjceVZC34I3cB-67" value="j=j+1" style="rounded=0;whiteSpace=wrap;html=1;" vertex="1" parent="1">
          <mxGeometry x="470" y="550" width="100" height="50" as="geometry" />
        </mxCell>
        <mxCell id="bnDdyVdjjceVZC34I3cB-68" value="конец" style="rounded=1;whiteSpace=wrap;html=1;arcSize=50;" vertex="1" parent="1">
          <mxGeometry x="330" y="660" width="100" height="50" as="geometry" />
        </mxCell>
        <mxCell id="bnDdyVdjjceVZC34I3cB-69" value="нет" style="text;html=1;strokeColor=none;fillColor=none;align=center;verticalAlign=middle;whiteSpace=wrap;rounded=0;" vertex="1" parent="1">
          <mxGeometry x="407" y="400" width="60" height="30" as="geometry" />
        </mxCell>
        <mxCell id="bnDdyVdjjceVZC34I3cB-70" value="да" style="text;html=1;strokeColor=none;fillColor=none;align=center;verticalAlign=middle;whiteSpace=wrap;rounded=0;" vertex="1" parent="1">
          <mxGeometry x="370" y="450" width="60" height="30" as="geometry" />
        </mxCell>
      </root>
    </mxGraphModel>
  </diagram>
</mxfile>
